<svg xmlns="http://www.w3.org/2000/svg" viewBox="0 0 1131.3 1131.09"><defs><style>.cls-1{fill:#5D5E70;}.cls-2{fill:#fefefe;}</style></defs><title>Arageek logo svg rev1</title><g id="Layer_2" data-name="Layer 2"><g id="Layer_1-2" data-name="Layer 1"><path class="cls-1" d="M565.54,0c312.59-1.26,572.35,256.76,565.64,578-6.41,306.68-260.85,559.85-578.85,552.9C245.85,1124.26-7.31,869.61.16,551.41,7.33,246.07,258.25-.78,565.54,0Z"/><path class="cls-2" d="M734.07,296.15c0-19.34-.06-36.88,0-54.43.06-11.86-1.59-10.37,10.56-10.43,16.49-.08,33,.26,49.47-.16,6.34-.16,8.35,1.46,8.3,8.12-.3,46.64-.16,93.29-.16,139.94,0,88.11-.1,176.22.18,264.33,0,7.28-1.94,9.09-9,8.88-17.42-.52-34.87-.36-52.29-.06-5.41.1-7.3-1.25-7.21-7,.34-21.86.14-43.72-.41-65.8-6.77,12.68-14.23,24.8-23.78,35.39-41.49,46-91.94,72.71-155.27,70.4C447.67,681.42,353.16,600.11,333.74,495c-15.15-82,6.67-153.7,64.79-213.18,40.44-41.37,90.57-64.56,148.59-68.57,66.21-4.58,122.73,18.16,170.77,63.2C723.66,281.83,728.13,288.41,734.07,296.15Z"/><path class="cls-2" d="M569.28,918.89c-86.38-3-153.56-40.07-200.69-113-2.49-3.85-2.39-6.21,1-9.51Q390.6,776,411,754.95c3.91-4,5.16-4.12,7.89,1.26,23.87,46.91,61.21,77.49,112.52,89.88,85.22,20.57,174.42-31,199.34-115,1.68-5.66,3.86-7.66,9.91-7.52,18.59.45,37.2.28,55.8.08,4.34,0,5.7.79,4.82,5.5C784,822,706,898.79,612.91,914.68A293.83,293.83,0,0,1,569.28,918.89Z"/><path class="cls-1" d="M734.07,449c-.2,93.31-76.08,168.86-169.25,168.52C472.45,617.18,397,541.2,397.21,448.76c.23-94.29,75.79-168.49,171.38-168.31C658.94,280.62,734.26,357.34,734.07,449Z"/></g></g></svg>